# xmcd CD database file
#
# Track frame offsets:
#	150
#	12853
#	25511
#	37875
#	51393
#	64892
#	69603
#	72214
#	87640
#	101641
#	105025
#	116833
#	129781
#	142517
#	154880
#	168374
#	179982
#	191816
#	203472
#
# Disc length: 2861 seconds
#
# Revision: 1
# Processed by: cddbd v1.5.2PL0 Copyright (c) Steve Scherf et al.
# Submitted via: CDex 1.70beta2
#
DISCID=000b2b13
DTITLE=Miles Davis - The Complete Recordings 1945 - 1960 - The Complete Recordings 1945 - 1960 - CD 07: The Charlie Parker Years Vol. 4 - WAV
DYEAR=1947
DGENRE=Jazz
TTITLE0=Original Charlie Parker Sextet (with Miles Davis) - Charlie’s Wig (Bongo Bop) (Tk 2)
TTITLE1=Original Charlie Parker Sextet (with Miles Davis) - Charlie’s Wig (Drifting an a Road) (Tk 4)
TTITLE2=Original Charlie Parker Sextet (with Miles Davis) - Charlie’s Wig (Tk 5)
TTITLE3=Original Charlie Parker Sextet (with Miles Davis) - Bongo Beep (Dexterity) (Tk 2)
TTITLE4=Original Charlie Parker Sextet (with Miles Davis) - Bongo Beep (Habanera Mambobop) (Bird Feathers) (Tk 3)
TTITLE5=Original Charlie Parker Sextet (with Miles Davis) - Crazeology (Little Benny) (Tk 1)
TTITLE6=Original Charlie Parker Sextet (with Miles Davis) - Crazeology (Little Benny) (Tk 2)
TTITLE7=Original Charlie Parker Sextet (with Miles Davis) - How Deep Is The Ocean? (How Deep) (Tk 1)
TTITLE8=Original Charlie Parker Sextet (with Miles Davis) - How Deep Is The Ocean? (Tk 2)
TTITLE9=Charlie Parker All Stars (with Miles Davis) - Another Hair Do (Tk 2)
TTITLE10=Charlie Parker All Stars (with Miles Davis) - Another Hair Do (Tk 4)
TTITLE11=Charlie Parker All Stars (with Miles Davis) - Bluebird (Tk 1)
TTITLE12=Charlie Parker All Stars (with Miles Davis) - Bluebird (Tk 3)
TTITLE13=Charlie Parker All Stars (with Miles Davis) - Klaunstance (Tk 1)
TTITLE14=Charlie Parker All Stars (with Miles Davis) - Bird Gets The Worm (Tk 1)
TTITLE15=Charlie Parker All Stars (with Miles Davis) - Bird Gets The Worm (Tk 3)
TTITLE16=Original Charlie Parker Quartet (with Miles Davis) - Barbados (Tk 1)
TTITLE17=Original Charlie Parker Quartet (with Miles Davis) - Barbados (Tk 3)
TTITLE18=Charlie Parker All Stars (with Miles Davis) - Barbados (Tk 4)
EXTD=YEAR: 1947
EXTT0=
EXTT1=
EXTT2=
EXTT3=
EXTT4=
EXTT5=
EXTT6=
EXTT7=
EXTT8=
EXTT9=
EXTT10=
EXTT11=
EXTT12=
EXTT13=
EXTT14=
EXTT15=
EXTT16=
EXTT17=
EXTT18=
PLAYORDER=
